<svg fill="#1D0134" width="209px" height="209px" viewBox="-3.2 -3.2 38.40 38.40" xmlns="http://www.w3.org/2000/svg" style="fill: rgb(29, 1, 52) !important; stroke: rgb(29, 1, 52) !important;" stroke="#1D0134" stroke-width="0.00032" transform="matrix(-1, 0, 0, 1, 0, 0)rotate(0)">
  <g id="SVGRepo_bgCarrier" stroke-width="0" style="fill: rgb(29, 1, 52) !important; stroke: rgb(29, 1, 52) !important;"></g>
  <g id="SVGRepo_tracerCarrier" stroke-linecap="round" stroke-linejoin="round" style="fill: rgb(29, 1, 52) !important; stroke: rgb(67, 92, 101) !important;" stroke="#CCCCCC" stroke-width="0.32"></g>
  <g id="SVGRepo_iconCarrier" style="fill: rgb(29, 1, 52) !important; stroke: rgb(29, 1, 52) !important;"> <title style="fill: rgb(29, 1, 52) !important; stroke: rgb(29, 1, 52) !important;"></title> <g data-name="Layer 2" id="Layer_2" style="fill: rgb(29, 1, 52) !important; stroke: rgb(29, 1, 52) !important;"> 
    <path d="M26,19.72a10,10,0,0,0-6-8.88V8h1a1,1,0,0,0,0-2H11a1,1,0,0,0,0,2h1v2.84a10,10,0,0,0-5.84,7.44A9,9,0,0,0,6,20a2.62,2.62,0,0,0,0,.28,10,10,0,0,0,19.84,1.44A9.74,9.74,0,0,0,26,20,2.62,2.62,0,0,0,26,19.72Zm-2.16,1.93A8,8,0,0,1,8,20.36c0-.12,0-.24,0-.36a7.43,7.43,0,0,1,.18-1.64,8,8,0,0,1,5.15-5.89,1,1,0,0,0,.67-1V8h4v3.52a1,1,0,0,0,.67,1A8,8,0,0,1,24,19.64,2.17,2.17,0,0,1,24,20,8.17,8.17,0,0,1,23.83,21.65Z" style="fill: rgb(29, 1, 52) !important; stroke: rgb(29, 1, 52) !important;"></path> 
    <path d="M22,20a6,6,0,0,1-12,0,5.29,5.29,0,0,1,.1-1.06l.33.16a5.12,5.12,0,0,0,2.57.62,5.12,5.12,0,0,0,2.57-.62A6.84,6.84,0,0,1,19,18.28a6.75,6.75,0,0,1,2.89.57A6.23,6.23,0,0,1,22,20Z" style="fill: rgb(174, 30, 235) !important; stroke: rgb(174, 30, 235) !important;"></path> 
    <path d="M8,8a.76.76,0,0,1-.75.75,1.51,1.51,0,0,0-1.5,1.5.75.75,0,0,1-1.5,0,1.5,1.5,0,0,0-1.5-1.5.75.75,0,0,1,0-1.5,1.5,1.5,0,0,0,1.5-1.5.75.75,0,0,1,1.5,0,1.51,1.51,0,0,0,1.5,1.5A.76.76,0,0,1,8,8Z" style="fill: rgb(174, 30, 235) !important; stroke: rgb(174, 30, 235) !important;"></path> 
    <path d="M30,5a.76.76,0,0,1-.75.75,1.51,1.51,0,0,0-1.5,1.5.75.75,0,0,1-1.5,0,1.5,1.5,0,0,0-1.5-1.5.75.75,0,0,1,0-1.5,1.5,1.5,0,0,0,1.5-1.5.75.75,0,0,1,1.5,0,1.51,1.51,0,0,0,1.5,1.5A.76.76,0,0,1,30,5Z" style="fill: rgb(174, 30, 235) !important; stroke: rgb(174, 30, 235) !important;"></path> 
  </g> 
  </g>
</svg>