<svg xmlns="http://www.w3.org/2000/svg" 
viewBox="0 0 1700 100">
<path fill="#273036" 
fill-opacity="0.5" 
d="M0,224L0,96L36.9,96L36.9,160L73.8,160L73.8,192L110.8,192L110.8,160L147.7,160L147.7,160L184.6,160L184.6,256L221.5,256L221.5,128L258.5,128L258.5,64L295.4,64L295.4,32L332.3,32L332.3,192L369.2,192L369.2,32L406.2,32L406.2,64L443.1,64L443.1,32L480,32L480,288L516.9,288L516.9,0L553.8,0L553.8,288L590.8,288L590.8,96L627.7,96L627.7,288L664.6,288L664.6,64L701.5,64L701.5,192L738.5,192L738.5,224L775.4,224L775.4,256L812.3,256L812.3,224L849.2,224L849.2,96L886.2,96L886.2,256L923.1,256L923.1,96L960,96L960,256L996.9,256L996.9,224L1033.8,224L1033.8,64L1070.8,64L1070.8,160L1107.7,160L1107.7,64L1144.6,64L1144.6,32L1181.5,32L1181.5,160L1218.5,160L1218.5,320L1255.4,320L1255.4,256L1292.3,256L1292.3,64L1329.2,64L1329.2,160L1366.2,160L1366.2,96L1403.1,96L1403.1,256L1440,256L1440,0L1403.1,0L1403.1,0L1366.2,0L1366.2,0L1329.2,0L1329.2,0L1292.3,0L1292.3,0L1255.4,0L1255.4,0L1218.5,0L1218.5,0L1181.5,0L1181.5,0L1144.6,0L1144.6,0L1107.7,0L1107.7,0L1070.8,0L1070.8,0L1033.8,0L1033.8,0L996.9,0L996.9,0L960,0L960,0L923.1,0L923.1,0L886.2,0L886.2,0L849.2,0L849.2,0L812.3,0L812.3,0L775.4,0L775.4,0L738.5,0L738.5,0L701.5,0L701.5,0L664.6,0L664.6,0L627.7,0L627.7,0L590.8,0L590.8,0L553.8,0L553.8,0L516.9,0L516.9,0L480,0L480,0L443.1,0L443.1,0L406.2,0L406.2,0L369.2,0L369.2,0L332.3,0L332.3,0L295.4,0L295.4,0L258.5,0L258.5,0L221.5,0L221.5,0L184.6,0L184.6,0L147.7,0L147.7,0L110.8,0L110.8,0L73.8,0L73.8,0L36.9,0L36.9,0L0,0L0,0Z" 
style="transition-property: -all !important; 
fill: rgb(167, 215, 250) !important;">
</path>
</svg>